<?xml version="1.0" encoding="UTF-8" standalone="no"?> <svg xmlns="http://www.w3.org/2000/svg" width="2864.000000pt" height="728.000000pt" viewBox="0 0 2864.000000 728.000000" preserveAspectRatio="xMidYMid meet"><metadata> Created by potrace 1.15, written by Peter Selinger 2001-2017 </metadata><g transform="translate(0.000000,728.000000) scale(0.100000,-0.100000)" fill="#000000" stroke="none"><path d="M3505 7269 c-124 -18 -173 -30 -295 -70 -220 -73 -461 -243 -614 -434 -27 -33 -50 -61 -51 -63 -1 -2 -36 5 -76 15 -90 21 -289 23 -369 4 -138 -33 -231 -74 -330 -147 -115 -84 -214 -201 -276 -323 -26 -52 -26 -52 -124 -66 -79 -12 -147 -35 -245 -85 -208 -106 -351 -270 -430 -496 l-18 -51 -117 -6 c-140 -8 -222 -31 -309 -87 -115 -75 -178 -155 -228 -295 -17 -47 -18 -142 -21 -1750 -2 -1265 0 -1715 9 -1760 39 -204 221 -388 418 -425 33 -6 341 -10 787 -10 l734 0 0 -220 0 -220 -220 0 -220 0 0 -105 0 -105 1845 0 1845 0 0 105 0 105 -215 0 -215 0 0 220 0 219 763 3 762 3 60 24 c169 67 296 207 341 374 21 80 20 3437 -1 3517 -25 93 -75 180 -146 250 -108 107 -207 147 -396 157 l-122 6 -7 31 c-3 17 -24 69 -46 116 -146 315 -490 520 -833 496 l-90 -6 -34 103 c-122 372 -375 668 -718 840 -234 119 -549 172 -798 136z m450 -238 c84 -22 219 -73 270 -101 291 -163 483 -386 581 -674 28 -80 64 -252 64 -300 0 -18 2 -35 5 -38 3 -3 47 8 98 25 81 26 107 30 217 31 126 1 144 -2 260 -47 164 -62 313 -227 368 -407 97 -320 -69 -666 -378 -789 -116 -46 -166 -51 -542 -51 l-348 0 0 -110 0 -110 323 0 c425 0 523 13 693 90 119 54 230 147 337 281 80 100 157 318 157 442 l0 60 103 -5 c92 -4 109 -8 162 -37 66 -35 122 -99 152 -172 17 -42 18 -120 18 -1539 l0 -1495 -3138 -3 -3137 -2 2 1513 3 1513 35 58 c72 118 140 157 288 164 l102 5 0 -50 c0 -66 40 -221 78 -306 93 -204 261 -366 468 -450 137 -55 251 -67 657 -67 l317 0 0 109 0 110 -387 3 -388 3 -84 30 c-194 67 -332 204 -408 404 -35 91 -43 259 -18 363 39 165 154 320 300 406 107 62 181 83 321 89 l122 6 28 84 c92 284 357 466 653 450 96 -5 166 -23 265 -67 56 -26 52 -28 104 60 14 25 29 47 32 50 3 3 22 28 42 56 20 28 69 80 108 117 171 160 350 254 590 307 120 27 388 22 505 -9z m2539 -5261 c-2 -111 -22 -166 -88 -235 -46 -48 -88 -72 -161 -91 -76 -21 -5706 -20 -5782 0 -69 18 -112 46 -166 106 -56 62 -77 127 -77 236 l0 84 3138 -2 3137 -3 -1 -95z m-1944 -770 l0 -220 -1190 0 -1190 0 0 220 0 220 1190 0 1190 0 0 -220z"></path><path d="M3538 6835 c-193 -31 -406 -132 -513 -244 l-29 -32 74 -74 75 -75 25 23 c88 81 237 156 363 183 214 45 449 -14 626 -157 l61 -49 70 70 c38 38 70 74 70 81 0 27 -133 125 -247 183 -108 54 -191 78 -326 96 -98 12 -139 12 -249 -5z"></path><path d="M5200 5661 l0 -111 28 -6 c54 -11 85 -28 122 -64 47 -46 64 -96 57 -170 -9 -98 -65 -163 -164 -189 l-43 -12 0 -106 0 -105 58 7 c85 10 177 58 247 129 64 64 89 107 111 191 63 234 -102 493 -336 530 -25 3 -53 9 -62 11 -16 5 -18 -5 -18 -105z"></path><path d="M2380 4840 l0 -380 110 0 110 0 0 380 0 380 -110 0 -110 0 0 -380z"></path><path d="M3250 4465 l0 -755 105 0 105 0 0 755 0 755 -105 0 -105 0 0 -755z"></path><path d="M4110 5115 l0 -105 110 0 110 0 0 105 0 105 -110 0 -110 0 0 -105z"></path><path d="M4110 3925 l0 -865 553 0 552 0 24 -46 c84 -157 274 -217 435 -137 94 47 169 169 170 278 2 125 -69 246 -178 302 -44 23 -63 27 -141 27 -74 1 -98 -3 -137 -23 -59 -29 -129 -98 -153 -151 l-18 -40 -444 0 -443 0 0 760 0 760 -110 0 -110 0 0 -865z m1476 -673 c89 -71 34 -204 -79 -189 -59 8 -90 43 -90 103 0 40 4 51 31 76 38 33 104 38 138 10z"></path><path d="M2380 3760 l0 -490 -443 0 -442 0 -18 41 c-22 52 -93 120 -155 150 -37 19 -64 23 -127 24 -44 0 -97 -6 -118 -13 -58 -21 -128 -83 -167 -148 -34 -56 -35 -62 -35 -159 0 -97 1 -103 35 -159 117 -195 362 -222 517 -58 24 24 48 60 55 78 l12 34 553 0 553 0 0 595 0 595 -110 0 -110 0 0 -490z m-1121 -511 c52 -48 51 -120 -1 -164 -27 -23 -39 -26 -77 -22 -36 4 -52 12 -73 38 -40 47 -38 91 6 135 28 28 41 34 78 34 31 0 51 -6 67 -21z"></path><path d="M3250 3210 l0 -279 -36 -17 c-88 -42 -170 -159 -182 -260 -5 -46 12 -132 35 -178 25 -48 95 -116 148 -144 43 -23 62 -26 140 -26 79 0 97 3 143 27 201 105 244 357 88 512 -28 28 -68 59 -88 68 l-38 18 0 279 0 280 -105 0 -105 0 0 -280z m181 -509 c81 -81 -12 -226 -113 -175 -48 24 -68 53 -67 99 0 94 114 142 180 76z"></path><path d="M11785 5544 c-165 -12 -319 -23 -342 -23 l-43 -1 0 -366 0 -365 108 6 c148 8 531 25 565 25 l27 0 0 375 c0 206 -3 374 -7 374 -5 -1 -143 -12 -308 -25z"></path><path d="M15615 5544 c-165 -13 -319 -23 -342 -23 l-43 -1 0 -366 0 -365 103 6 c137 8 524 25 565 25 l32 0 0 369 c0 204 -3 371 -7 374 -5 2 -143 -7 -308 -19z"></path><path d="M7568 5346 c-152 -6 -279 -14 -282 -17 -3 -3 166 -841 376 -1862 l382 -1857 335 2 336 3 202 1135 c111 624 202 1137 203 1140 1 3 91 -508 199 -1135 l197 -1140 364 0 364 0 402 1870 c221 1029 400 1872 398 1874 -4 5 -597 -18 -639 -24 l-31 -5 -233 -1103 c-129 -606 -236 -1107 -240 -1114 -3 -7 -94 492 -201 1108 -107 616 -198 1125 -201 1131 -7 11 -569 -10 -589 -22 -6 -4 -105 -496 -220 -1094 -115 -598 -210 -1092 -213 -1099 -2 -7 -7 2 -10 18 -8 35 -387 2191 -387 2200 0 7 -179 4 -512 -9z"></path><path d="M13038 5316 l-318 -41 0 -1832 0 -1833 350 0 350 0 0 516 0 517 111 149 c62 82 115 145 119 141 4 -4 132 -316 285 -693 153 -377 280 -687 282 -690 3 -3 143 42 313 99 l308 103 -38 87 c-21 47 -187 421 -369 830 l-330 743 388 497 c213 273 391 502 395 509 6 9 -71 12 -371 12 l-378 0 -355 -460 -355 -460 -3 925 -2 925 -33 -1 c-17 -1 -175 -20 -349 -43z"></path><path d="M17505 5338 c-231 -10 -420 -20 -420 -21 -4 -10 -785 -3685 -785 -3694 0 -10 72 -13 325 -13 179 0 325 1 325 3 0 5 149 750 155 775 l5 22 449 0 449 0 10 -57 c5 -32 36 -212 68 -400 l58 -343 40 0 c108 1 749 29 753 33 2 3 -178 839 -400 1859 l-404 1853 -104 1 c-57 1 -293 -7 -524 -18z m196 -1428 c93 -485 169 -886 169 -891 0 -5 -134 -9 -310 -9 l-310 0 0 23 c0 12 61 410 135 885 74 475 135 869 135 874 0 50 34 -114 181 -882z"></path><path d="M26880 4446 c-162 -34 -286 -89 -396 -177 -218 -173 -363 -469 -431 -879 -22 -135 -25 -606 -5 -745 70 -468 244 -797 512 -967 243 -154 625 -177 904 -54 173 77 323 231 431 441 44 87 101 242 92 251 -6 6 -521 204 -522 201 -1 -1 -23 -54 -50 -117 -90 -217 -126 -269 -218 -314 -89 -45 -191 -34 -265 28 -99 84 -185 376 -199 679 l-6 127 668 0 c624 0 669 1 681 18 31 40 13 367 -31 588 -98 489 -344 805 -701 905 -100 28 -361 36 -464 15z m306 -492 c121 -58 197 -235 212 -497 4 -71 5 -130 3 -133 -2 -2 -155 -4 -339 -4 l-335 0 6 98 c20 318 188 575 364 559 28 -3 68 -13 89 -23z"></path><path d="M25575 4439 c-236 -35 -412 -125 -591 -303 -50 -50 -103 -107 -117 -126 l-27 -35 0 221 c0 121 -2 223 -5 225 -2 3 -66 0 -142 -7 -76 -7 -231 -20 -345 -30 l-208 -17 0 -1394 c0 -766 3 -1393 8 -1393 18 0 611 51 650 56 l42 5 0 925 0 924 48 35 c68 50 184 109 277 139 138 46 478 106 603 106 9 0 12 75 12 340 l0 340 -72 -1 c-40 -1 -100 -5 -133 -10z"></path><path d="M11775 4399 c-170 -15 -325 -28 -342 -28 l-33 -1 0 -1395 c0 -767 3 -1395 8 -1395 18 0 611 51 650 56 l42 5 0 1389 c0 764 -3 1391 -7 1393 -5 2 -147 -9 -318 -24z"></path><path d="M15605 4398 c-170 -14 -327 -27 -347 -27 l-38 -1 0 -1395 c0 -1322 1 -1395 18 -1395 45 1 674 59 678 62 2 3 3 630 2 1394 l-3 1389 -310 -27z"></path><path d="M19320 4415 c0 -16 -45 -417 -55 -492 l-6 -43 454 -2 454 -3 -473 -915 -474 -915 0 -217 0 -218 870 0 870 0 4 23 c6 27 56 485 56 510 0 16 -31 17 -500 17 -275 0 -500 3 -500 6 0 3 209 419 465 924 l465 919 0 210 0 211 -815 0 c-721 0 -815 -2 -815 -15z"></path><path d="M21795 4399 c-170 -15 -325 -28 -343 -28 l-32 -1 2 -1147 c3 -1286 -2 -1186 78 -1348 145 -294 457 -400 820 -279 171 57 285 128 423 263 l77 76 0 -178 c0 -135 3 -177 13 -177 22 0 611 50 655 56 l42 5 0 1394 0 1395 -27 -5 c-16 -3 -170 -16 -343 -30 -173 -14 -321 -28 -327 -30 -10 -3 -13 -212 -13 -998 l0 -994 -45 -42 c-67 -61 -157 -117 -233 -142 -77 -27 -205 -32 -264 -11 -70 25 -126 101 -147 200 -8 37 -11 350 -11 1047 0 547 -3 996 -7 998 -5 2 -147 -9 -318 -24z"></path></g></svg> 